<?xml version="1.0" encoding="UTF-8" standalone="no"?>
<!-- Created with Inkscape (http://www.inkscape.org/) -->

<svg
   xmlns:dc="http://purl.org/dc/elements/1.1/"
   xmlns:cc="http://creativecommons.org/ns#"
   xmlns:rdf="http://www.w3.org/1999/02/22-rdf-syntax-ns#"
   xmlns:svg="http://www.w3.org/2000/svg"
   xmlns="http://www.w3.org/2000/svg"
   xmlns:sodipodi="http://sodipodi.sourceforge.net/DTD/sodipodi-0.dtd"
   xmlns:inkscape="http://www.inkscape.org/namespaces/inkscape"
   version="1.1"
   id="svg2"
   xml:space="preserve"
   width="486.61694"
   height="510"
   viewBox="0 0 486.61695 510"
   sodipodi:docname="Fnatic.svg"
   inkscape:version="0.92.0 r15299"><metadata
     id="metadata8"><rdf:RDF><cc:Work
         rdf:about=""><dc:format>image/svg+xml</dc:format><dc:type
           rdf:resource="http://purl.org/dc/dcmitype/StillImage" /><dc:title></dc:title></cc:Work></rdf:RDF></metadata><defs
     id="defs6"><clipPath
       clipPathUnits="userSpaceOnUse"
       id="clipPath18"><path
         d="M 0,304.315 H 304.315 V 0 H 0 Z"
         id="path16"
         inkscape:connector-curvature="0" /></clipPath></defs><sodipodi:namedview
     pagecolor="#ffffff"
     bordercolor="#666666"
     borderopacity="1"
     objecttolerance="10"
     gridtolerance="10"
     guidetolerance="10"
     inkscape:pageopacity="0"
     inkscape:pageshadow="2"
     inkscape:window-width="1920"
     inkscape:window-height="1018"
     id="namedview4"
     showgrid="false"
     fit-margin-top="5"
     fit-margin-left="5"
     fit-margin-bottom="5"
     fit-margin-right="5"
     inkscape:zoom="0.58163417"
     inkscape:cx="175.1243"
     inkscape:cy="-23.543783"
     inkscape:window-x="1358"
     inkscape:window-y="-8"
     inkscape:window-maximized="1"
     inkscape:current-layer="g12" /><g
     id="g10"
     inkscape:groupmode="layer"
     inkscape:label="Fnatic-logo-transparent"
     transform="matrix(1.3333333,0,0,-1.3333333,-27.752363,530.1052)"><g
       id="g12"><g
         id="g14"
         clip-path="url(#clipPath18)"
         transform="matrix(1.4007932,0,0,1.4007932,-9.8451934,-7.546495)"><g
           id="g20"
           transform="translate(158.501,216.231)"><path
             d="m 0,0 c 0,0 -5.161,25.162 -0.32,34.418 4.5,8.597 19.738,8.517 19.738,8.517 0,0 9.81,0.525 20.715,-0.634 39.753,-4.226 65.022,-14.875 65.022,-14.875 0,0 20.377,-6.849 15.274,-22.284 -1.263,-3.828 -4.049,-9.583 -10.599,-12.276 -0.621,-0.256 -1.338,0.056 -1.546,0.701 l -1.519,4.708 c -0.765,0.397 -3.748,1.893 -6.433,2.869 h -0.058 C 83.636,7.454 51.084,10.908 42.138,11.391 28.223,12.14 30.339,13.726 32.584,0.944 42.303,-37.662 59.919,-66.322 72.512,-82.338 l -0.016,0.016 c 6.68,-7.728 15.336,-7.416 21.292,-3.396 0,0 4.827,2.751 6.64,-2.965 1.728,-5.441 7.797,-21.507 -0.474,-45.646 -1.056,-2.866 -2.706,-7.054 -4.476,-8.248 -1.21,-0.722 -2.522,-0.168 -3.89,0.728 -25.639,16.808 -51.66,51.434 -51.66,51.434 C 5.673,-44.863 -0.243,1.701 -0.243,1.701 l 0.016,-0.003"
             style="fill:#f78f16;fill-opacity:1;fill-rule:nonzero;stroke:none"
             id="path22"
             inkscape:connector-curvature="0" /></g><g
           id="g24"
           transform="translate(151.9927,176.6793)"><path
             d="m 0,0 c -6.166,-0.067 -8.717,-3.391 -9.152,-8.325 -2.45,-27.94 -3.292,-76.204 -0.042,-87.641 2.14,-7.52 8.573,-7.053 8.573,-7.053 h 1.242 c 0,0 7.534,-0.192 8.701,7.053 1.885,11.74 2.151,51.927 -0.074,86.9 C 8.896,-3.551 6.286,0 0,0"
             style="fill:#f78f16;fill-opacity:1;fill-rule:nonzero;stroke:none"
             id="path26"
             inkscape:connector-curvature="0" /></g><g
           id="g28"
           transform="translate(150.8791,261.0008)"><path
             d="m 0,0 c 4.71,-0.597 10.263,2.639 11.967,8.283 1.181,3.921 2.154,8.33 -1.794,13.448 -4.266,5.524 -12.908,3.402 -12.908,3.402 0,0 -7.44,-1.879 -8.344,-9.034 C -11.476,12.958 -11.452,1.431 0,0"
             style="fill:#f78f16;fill-opacity:1;fill-rule:nonzero;stroke:none"
             id="path30"
             inkscape:connector-curvature="0" /></g><g
           id="g32"
           transform="translate(145.4506,216.0647)"><path
             d="m 0,0 c 0,0 5.198,25.181 0.32,34.418 -4.879,9.229 -19.807,8.336 -19.807,8.336 -5.643,0.117 -12.444,-0.024 -20.537,-0.469 -24.259,-1.941 -54.142,-8.784 -64.973,-14.433 0,0 -20.143,-7.174 -15.07,-22.619 1.255,-3.831 3.788,-9.224 10.333,-11.932 0.621,-0.256 1.338,0.056 1.546,0.696 l 1.876,5.238 c 0.765,0.394 3.407,1.354 6.092,2.327 h 0.058 c 16.648,6.278 49.272,9.669 58.221,10.135 13.913,0.723 12.116,1.68 9.125,-10.951 -2.706,-11.444 -9.541,-29.779 -9.541,-29.779 -3.769,-10.813 -29.323,-17.325 -32.013,-18.562 0,0 -8.672,-3.316 -12.404,-11.591 -1.749,-3.876 -2.213,-5.446 -2.213,-5.446 -0.509,-1.535 0.667,-3.49 3.647,-2.604 l 26.996,5.899 c 0.168,-0.027 -3.63,-5.684 -3.63,-5.684 0,0 -4.015,-5.75 -5.521,-8.034 0,0 -4.444,-6.134 -5.476,-7.39 -6.07,-7.395 -15.517,-7.123 -21.361,-2.879 0,0 -3.59,2.519 -5.403,-3.191 -1.73,-5.441 -8.112,-21.451 0.16,-45.59 1.05,-2.868 2.793,-6.699 4.564,-7.896 1.415,-1.586 2.527,-0.389 3.83,0.594 18.528,13.964 39.806,34.608 57.227,59.463 18.94,27.015 27.7,56.952 27.7,56.952 C -3.953,-18.354 -0.968,-4.583 0,0"
             style="fill:#f78f16;fill-opacity:1;fill-rule:nonzero;stroke:none"
             id="path34"
             inkscape:connector-curvature="0" /></g><g
           id="g36"
           transform="translate(79.5655,47.4238)"
           style="fill:#262729;fill-opacity:1"><path
             d="m 0,0 h -19.401 v -5.7 h 15.044 v -8.806 H -19.401 V -28.594 H -29.665 V 8.481 H 0 Z"
             style="fill:#262729;fill-opacity:1;fill-rule:nonzero;stroke:none"
             id="path38"
             inkscape:connector-curvature="0" /></g><g
           id="g40"
           transform="translate(122.1636,18.8293)"
           style="fill:#262729;fill-opacity:1"><path
             d="m 0,0 h -10.312 v 25.025 c 0,1.36 -0.36,2.295 -1.079,2.805 -0.72,0.51 -1.863,0.764 -3.43,0.764 H -26.476 V 0 h -10.311 v 37.075 h 26.475 c 2.686,0 4.908,-0.587 6.667,-1.76 C -1.216,33.708 0,31.144 0,27.622 Z"
             style="fill:#262729;fill-opacity:1;fill-rule:nonzero;stroke:none"
             id="path42"
             inkscape:connector-curvature="0" /></g><g
           id="g44"
           transform="translate(155.1884,35.3739)"
           style="fill:#262729;fill-opacity:1"><path
             d="m 0,0 v 12.05 h -12.999 c -2.11,0 -3.165,-1.143 -3.165,-3.43 V 0 Z M 10.311,-16.545 H 0 v 8.991 h -16.164 v -8.991 H -26.476 V 12.05 c 0,5.654 3.262,8.481 9.785,8.481 h 27.002 z"
             style="fill:#262729;fill-opacity:1;fill-rule:nonzero;stroke:none"
             id="path46"
             inkscape:connector-curvature="0" /></g><g
           id="g48"
           transform="translate(202.0049,47.4238)"
           style="fill:#262729;fill-opacity:1"><path
             d="M 0,0 H -9.03 V -28.594 H -19.341 V 0 h -12.567 l 3.537,8.481 H 3.537 Z"
             style="fill:#262729;fill-opacity:1;fill-rule:nonzero;stroke:none"
             id="path50"
             inkscape:connector-curvature="0" /></g><path
           d="m 219.503,18.829 h -10.312 v 37.075 h 10.312 z"
           style="fill:#262729;fill-opacity:1;fill-rule:nonzero;stroke:none"
           id="path52"
           inkscape:connector-curvature="0" /><g
           id="g54"
           transform="translate(255.4244,18.8293)"
           style="fill:#262729;fill-opacity:1"><path
             d="m 0,0 h -20.821 c -2.814,0 -5.163,0.741 -7.049,2.224 -2.175,1.7 -3.262,4.109 -3.262,7.231 v 19.139 c 0,2.503 0.543,4.387 1.63,5.655 1.599,1.883 4.493,2.826 8.681,2.826 h 19.642 l -3.537,-8.481 h -13.419 c -0.831,0 -1.486,-0.254 -1.966,-0.764 -0.479,-0.51 -0.72,-1.166 -0.72,-1.97 V 11.679 c 0,-2.349 0.976,-3.523 2.927,-3.523 H 0 Z"
             style="fill:#262729;fill-opacity:1;fill-rule:nonzero;stroke:none"
             id="path56"
             inkscape:connector-curvature="0" /></g></g></g></g></svg>