<?xml version="1.0" encoding="UTF-8" standalone="no"?>
<!-- Created with Inkscape (http://www.inkscape.org/) -->

<svg
   xmlns:dc="http://purl.org/dc/elements/1.1/"
   xmlns:cc="http://creativecommons.org/ns#"
   xmlns:rdf="http://www.w3.org/1999/02/22-rdf-syntax-ns#"
   xmlns:svg="http://www.w3.org/2000/svg"
   xmlns="http://www.w3.org/2000/svg"
   xmlns:sodipodi="http://sodipodi.sourceforge.net/DTD/sodipodi-0.dtd"
   xmlns:inkscape="http://www.inkscape.org/namespaces/inkscape"
   width="509.99979"
   height="589.47858"
   viewBox="0 0 134.93744 155.96621"
   version="1.1"
   id="svg7462"
   inkscape:version="0.92.3 (2405546, 2018-03-11)"
   sodipodi:docname="G2.svg">
  <defs
     id="defs7456" />
  <sodipodi:namedview
     id="base"
     pagecolor="#000000"
     bordercolor="#666666"
     borderopacity="1.0"
     inkscape:pageopacity="0"
     inkscape:pageshadow="2"
     inkscape:zoom="0.686"
     inkscape:cx="214.16201"
     inkscape:cy="118.4914"
     inkscape:document-units="px"
     inkscape:current-layer="layer1"
     showgrid="false"
     units="px"
     fit-margin-top="5"
     fit-margin-bottom="5"
     fit-margin-left="5"
     fit-margin-right="5"
     inkscape:pagecheckerboard="true"
     inkscape:window-width="1920"
     inkscape:window-height="1018"
     inkscape:window-x="1352"
     inkscape:window-y="-8"
     inkscape:window-maximized="1" />
  <metadata
     id="metadata7459">
    <rdf:RDF>
      <cc:Work
         rdf:about="">
        <dc:format>image/svg+xml</dc:format>
        <dc:type
           rdf:resource="http://purl.org/dc/dcmitype/StillImage" />
        <dc:title></dc:title>
      </cc:Work>
    </rdf:RDF>
  </metadata>
  <g
     inkscape:label="Calque 1"
     inkscape:groupmode="layer"
     id="layer1"
     transform="translate(-64.718453,-100.20551)">
    <g
       id="g845"
       transform="translate(242.18922,935.91373)" />
    <path
       style="fill:#000000;stroke-width:0.0772122"
       d="m 131.37339,254.2622 c -5.29329,-3.8448 -12.30857,-9.132 -15.75335,-11.8729 -4.5476,-3.6184 -13.50101,-11.7591 -19.185569,-17.444 -3.89162,-3.8919 -6.87124,-7.2882 -12.80586,-14.5967 -5.68434,-7.0004 -7.82628,-9.9202 -11.34415,-15.4638 -1.90757,-3.006 -6.18727,-9.9888 -6.24295,-10.1861 -0.0138,-0.049 0.98246,-0.831 2.21399,-1.7378 8.10775,-5.9696 9.55298,-7.1962 11.80845,-10.0216 1.79694,-2.2511 4.30919,-6.1363 4.99274,-7.7213 0.78707,-1.825 1.97857,-6.28 2.89408,-10.821 0.038,-0.1884 -0.0376,-0.2596 -0.97092,-0.915 -2.64622,-1.8578 -5.41667,-4.1656 -7.08799,-5.9041 -1.43839,-1.4962 -4.26384,-5.0036 -5.14573,-6.3876 l -0.13237,-0.2077 0.25682,-0.044 c 0.14124,-0.024 1.75087,-0.2355 3.57691,-0.4701 3.99752,-0.5136 9.98825,-1.3664 11.13677,-1.5853 2.00858,-0.3828 4.29093,-1.0436 6.236,-1.8055 0.89854,-0.352 3.4158,-1.5597 3.68462,-1.7679 0.12508,-0.097 0.12208,-0.1544 -0.0513,-0.9839 -0.34398,-1.646 -0.39084,-2.2215 -0.38291,-4.7031 0.0109,-3.46 0.22149,-5.3706 0.88022,-7.9907 1.116519,-4.4408 2.469979,-7.6231 4.597809,-10.8105 2.60194,-3.8975 5.43901,-6.5714 8.76011,-8.2563 0.86733,-0.44 2.4544,-1.0933 2.50918,-1.0329 0.0118,0.013 0.29033,0.5971 0.6189,1.2978 2.55346,5.4453 4.11362,8.0254 6.32096,10.4528 0.78707,0.8656 2.10947,2.0056 3.05932,2.6373 1.53874,1.0234 3.83789,2.011 5.90789,2.5378 0.51086,0.13 0.67044,0.1055 1.98712,-0.3052 3.83752,-1.1969 6.48086,-3.0102 9.05548,-6.2117 1.48246,-1.8434 3.09198,-4.68 5.1698,-9.111 0.32858,-0.7007 0.60709,-1.2847 0.61892,-1.2978 0.0551,-0.061 1.64492,0.5944 2.52786,1.0418 3.28732,1.6655 6.15133,4.3677 8.74142,8.2474 1.94634,2.9155 3.06239,5.3964 4.20293,9.3427 0.97885,3.3869 1.26641,5.5261 1.27665,9.4971 0.006,2.4388 -0.0422,3.0265 -0.38447,4.6645 -0.17335,0.8295 -0.17635,0.8871 -0.0513,0.9839 0.26882,0.2082 2.78607,1.4159 3.68462,1.7679 1.94506,0.7619 4.22742,1.4227 6.23599,1.8055 1.14853,0.2189 7.13926,1.0717 11.13676,1.5853 1.82607,0.2346 3.43569,0.4462 3.57693,0.4701 l 0.25681,0.044 -0.13238,0.2077 c -0.88188,1.384 -3.70733,4.8914 -5.14571,6.3876 -1.67132,1.7385 -4.44177,4.0463 -7.08799,5.9041 -0.93336,0.6554 -1.00892,0.7266 -0.97093,0.915 0.91552,4.541 2.10702,8.996 2.8941,10.821 0.68355,1.585 3.19579,5.4702 4.99273,7.7213 2.25545,2.8254 3.7007,4.052 11.80845,10.0216 1.23153,0.9068 2.22782,1.6888 2.21399,1.7378 -0.0557,0.1973 -4.33537,7.1801 -6.24296,10.1861 -3.0266,4.7695 -4.55691,6.9212 -8.22496,11.5645 -4.97223,6.2944 -10.40348,12.7535 -13.4721,16.0216 -3.61173,3.8465 -12.46789,12.127 -18.86161,17.6356 -2.7977,2.4104 -9.08514,7.2304 -17.0277,13.0536 -1.0192,0.7472 -1.95871,1.4329 -2.0878,1.5237 l -0.23472,0.165 z m -1.23231,-10.7124 c 1.09784,-0.7432 2.02941,-1.3512 2.07014,-1.3512 0.0407,0 0.97052,0.6074 2.06619,1.3497 l 1.99212,1.3497 0.23659,-0.149 c 0.56691,-0.3572 3.73354,-2.5891 4.83424,-3.4073 1.56677,-1.1648 5.47855,-4.4648 5.47855,-4.6218 0,-0.029 -0.52987,-0.4309 -1.17749,-0.8924 -0.64761,-0.4616 -1.7768,-1.2852 -2.5093,-1.8303 l -1.33182,-0.9912 2.56721,-2.252 c 4.47057,-3.9218 5.46451,-4.8223 8.31953,-7.5379 2.42726,-2.3086 4.01504,-3.8819 4.01495,-3.9782 0,-0.1982 -1.56202,-5.5762 -1.91444,-6.5923 -0.2099,-0.6051 -0.37156,-1.1002 -0.35924,-1.1002 0.0425,0 2.02164,2.2814 3.08114,3.5517 1.19842,1.4369 2.1241,2.6847 3.78051,5.096 0.62719,0.9131 1.18372,1.7055 1.23673,1.761 0.0783,0.082 0.45897,-0.274 2.02384,-1.8917 4.50412,-4.6563 6.81015,-7.1978 9.94244,-10.9575 2.54065,-3.0496 5.92992,-7.397 8.15003,-10.454 2.29642,-3.1621 8.22039,-11.8331 8.17362,-11.9638 -0.0139,-0.039 -0.65078,-0.5292 -1.41518,-1.0893 -7.51743,-5.5086 -10.97142,-9.0192 -13.67086,-13.8949 -1.69535,-3.0622 -3.56691,-8.4053 -4.23964,-12.1039 -0.35832,-1.9699 -0.65904,-4.7507 -0.65904,-6.0941 0,-0.4297 -0.0255,-0.5636 -0.10731,-0.5636 -0.19337,0 -5.79727,1.9678 -6.12296,2.1501 -0.10357,0.058 -0.11669,0.5191 -0.10718,3.7644 0.0144,4.9015 -0.21131,12.8214 -0.50032,17.558 -0.48516,7.9513 -1.32866,11.8447 -3.85702,17.803 -1.79359,4.2268 -4.5082,8.8149 -7.94498,13.4283 -2.41323,3.2394 -4.44949,5.6117 -7.02866,8.1886 -3.36605,3.3631 -6.51319,5.8326 -10.08081,7.9103 -1.0838,0.6312 -2.74314,1.4679 -2.91107,1.4679 -0.29072,0 -2.09771,-0.9555 -3.8064,-2.0129 -6.34917,-3.9287 -12.80418,-10.4709 -18.16448,-18.4097 -3.05743,-4.5282 -4.73701,-7.6163 -6.4395,-11.8398 -2.43827,-6.0488 -3.15822,-10.3868 -3.57718,-21.5545 -0.214269,-5.7111 -0.325329,-11.1445 -0.278769,-13.6385 l 0.0492,-2.6358 -1.17916,-0.4331 c -2.62696,-0.965 -5.11762,-1.7974 -5.13297,-1.7157 -0.009,0.047 -0.0527,0.6933 -0.0976,1.4364 -0.29013,4.803 -1.16193,8.5718 -3.14349,13.5894 -1.84552,4.673 -4.41113,8.3951 -8.07664,11.7171 -1.34412,1.2181 -2.6274,2.2949 -4.30175,3.6093 -1.15002,0.9028 -4.12923,3.1256 -4.39051,3.2757 -0.11233,0.065 0.23907,0.612 3.02716,4.716 5.96547,8.7809 11.06272,15.434 16.68026,21.7719 2.10335,2.373 8.324929,8.9199 8.476739,8.9199 0.0321,0 0.58552,-0.7631 1.22987,-1.6957 1.59185,-2.304 2.58858,-3.6651 3.50639,-4.7881 0.92796,-1.1354 3.38842,-3.9728 3.41922,-3.943 0.012,0.012 -0.15522,0.5383 -0.37171,1.1703 -0.21646,0.6321 -0.74045,2.3653 -1.1644,3.8516 l -0.77082,2.7025 0.96003,0.9265 c 5.12023,4.9416 7.06201,6.7199 12.84999,11.7685 0.60457,0.5274 1.09774,0.9791 1.09594,1.0038 -0.005,0.065 -4.54819,3.4116 -4.92889,3.6301 -0.12471,0.072 -0.0363,0.157 1.8823,1.8203 1.63059,1.4137 2.76577,2.3229 4.20805,3.3706 1.12154,0.8146 4.34047,3.0698 4.38751,3.0739 0.0138,0 0.92326,-0.6059 2.02111,-1.3491 z m 5.82952,-23.5533 c 1.81308,-1.1996 3.78887,-2.6333 4.82576,-3.5018 1.12822,-0.9449 3.28364,-2.996 4.34914,-4.1386 3.20005,-3.4316 6.5277,-7.9857 8.77295,-12.0065 1.30668,-2.34 4.04483,-8.03 3.9229,-8.1519 -0.0195,-0.019 -0.29248,0.075 -0.60665,0.2092 -2.01845,0.8643 -3.14492,1.2284 -7.13427,2.3059 -1.51604,0.4094 -2.35142,0.6709 -2.41783,0.7569 -0.0558,0.072 -0.48408,0.8089 -0.9517,1.637 -1.43351,2.5385 -2.05545,3.3861 -4.36678,5.9514 -0.45405,0.504 -0.83887,0.903 -0.85516,0.8867 -0.0503,-0.05 0.2347,-10.1932 0.28822,-10.2553 0.0277,-0.032 0.84754,-0.2109 1.82184,-0.3971 5.29058,-1.0111 7.98317,-1.6904 11.42299,-2.8819 1.16481,-0.4034 4.21526,-1.5412 4.24761,-1.5843 0.0475,-0.063 0.61847,-2.3892 0.87676,-3.5716 1.12405,-5.1458 1.52364,-8.779 1.94467,-17.6816 0.0442,-0.9343 0.10111,-3.95 0.12651,-6.7017 l 0.0462,-5.0031 -0.49376,0.1864 c -1.07727,0.4066 -5.0776,2.0369 -6.88804,2.8071 -4.08764,1.739 -6.41459,3.0417 -10.32217,5.7789 -3.35806,2.3522 -8.09182,6.5614 -10.67859,9.4954 l -0.74882,0.8494 v 3.5324 3.5325 h 0.2693 c 0.35687,0 3.0887,-0.3515 4.21113,-0.5418 1.05656,-0.1792 2.451,-0.5546 3.78128,-1.018 l 0.96515,-0.3363 0.021,-1.4425 0.021,-1.4424 1.83209,-1.3419 c 1.00766,-0.738 2.1675,-1.5736 2.57743,-1.8569 0.6493,-0.4487 0.82457,-0.6219 1.3604,-1.3444 0.3383,-0.4561 0.73901,-1.0203 0.89046,-1.2539 0.58129,-0.8964 2.4322,-4.3068 3.54101,-6.5244 0.637,-1.274 1.13766,-2.252 1.11259,-2.1734 -0.0251,0.079 -0.37577,1.1905 -0.7793,2.4708 -0.40354,1.2803 -1.02216,3.2021 -1.37472,4.2707 l -0.64103,1.9429 0.39088,-0.2289 c 0.56131,-0.3286 2.96107,-1.5336 3.05429,-1.5336 0.0822,0 0.0531,0.7236 -0.0838,2.0761 -0.14515,1.4349 -0.44157,2.5018 -1.12074,4.0336 -0.70907,1.5993 -1.20441,2.2956 -2.33779,3.2865 -0.87672,0.7665 -1.65557,1.2741 -3.11576,2.0308 l -1.21498,0.6297 -0.43722,0.7856 c -1.19476,2.1469 -2.92786,5.1419 -3.28224,5.672 -0.49151,0.7352 -2.55171,3.5022 -2.58378,3.4701 -0.0128,-0.013 0.80896,-2.0173 1.82623,-4.4544 1.01726,-2.437 1.84958,-4.4548 1.84958,-4.4839 0,-0.029 -0.40827,0.047 -0.90725,0.1684 -3.09133,0.7542 -6.29108,1.2784 -9.14964,1.4992 l -0.67561,0.052 v 18.6774 18.6775 l 0.52118,-0.3228 c 0.28665,-0.1775 1.32033,-0.8514 2.29706,-1.4977 z m -4.74855,-16.9012 v -18.642 l -0.36676,-0.051 c -1.92886,-0.2676 -4.94005,-0.8464 -7.00701,-1.3469 -2.44447,-0.592 -5.2865,-1.6531 -8.67712,-3.2398 -0.73807,-0.3454 -1.35132,-0.618 -1.36279,-0.6059 -0.0229,0.024 -0.0335,-0.045 0.46823,3.0334 0.57348,3.5181 1.00888,5.2641 1.94702,7.8076 l 0.43769,1.1867 0.90168,0.3808 c 0.49593,0.2094 1.66132,0.6488 2.58975,0.9765 0.92842,0.3276 1.86427,0.673 2.07969,0.7675 l 0.39167,0.1719 0.10155,5.1471 c 0.0559,2.831 0.0863,5.1625 0.0676,5.1812 -0.0444,0.044 -1.5217,-1.858 -2.54831,-3.2814 -3.2425,-4.4958 -4.51813,-6.8741 -5.96976,-11.1303 -1.38801,-4.0695 -1.87937,-7.1668 -2.6307,-16.5826 -0.15052,-1.8864 -0.26326,-3.5113 -0.25052,-3.6109 0.0217,-0.1692 0.1097,-0.1257 1.33578,0.6592 3.26078,2.0873 5.11241,3.4754 7.98794,5.988 1.57428,1.3756 1.38359,1.0036 1.56051,3.0441 0.0944,1.0887 0.0993,1.1081 0.30856,1.2163 0.3582,0.1853 2.67954,0.9336 3.55926,1.1475 1.33813,0.3253 5.07437,0.8546 5.17837,0.7336 0.0163,-0.019 -0.002,-1.598 -0.0408,-3.509 l -0.0704,-3.4745 -0.23982,-0.3475 c -0.49144,-0.712 -1.69416,-2.1521 -2.53611,-3.0368 -2.47914,-2.6048 -7.32575,-6.4137 -11.04606,-8.681 -3.07369,-1.8732 -7.57312,-4.04 -12.27045,-5.9089 -2.53754,-1.0096 -2.36168,-0.958 -2.40968,-0.707 -0.0563,0.2948 0.0765,9.3767 0.17221,11.7707 0.46336,11.5945 0.71841,14.2864 1.74112,18.3765 1.3963,5.5841 3.69732,10.558 7.64399,16.5234 3.42239,5.173 7.61724,9.9996 11.54131,13.2795 1.68455,1.408 7.11128,5.3954 7.35446,5.4039 0.0319,0 0.0579,-8.3869 0.0579,-18.6401 z m 1.68274,-31.4647 c 2.08993,-2.7329 3.63389,-4.294 6.52192,-6.594 3.9061,-3.1109 7.83293,-5.6149 12.18666,-7.7711 2.11422,-1.047 3.53796,-1.6482 8.13858,-3.4367 11.65051,-4.5292 13.75403,-5.4745 16.93704,-7.6112 0.82254,-0.5521 2.40788,-1.7149 2.37835,-1.7444 -0.009,-0.01 -0.74529,-0.089 -1.63592,-0.1766 -6.30239,-0.6225 -10.04323,-1.3903 -13.15913,-2.7009 -1.42438,-0.5992 -3.62895,-1.7345 -4.60224,-2.3701 -0.15057,-0.098 -0.20031,-0.043 -0.92654,1.0321 -1.50362,2.2259 -3.52462,4.8523 -5.18507,6.7383 -2.13684,2.427 -5.17537,5.0404 -8.39959,7.2242 -0.55207,0.3739 -0.94866,0.6126 -0.88133,0.5305 0.0674,-0.082 0.58961,-0.6879 1.1606,-1.3461 4.01984,-4.6341 6.45714,-7.6962 7.65271,-9.6145 2.71015,-4.3483 4.72126,-9.3323 5.46728,-13.5492 0.21495,-1.2149 0.29619,-4.0384 0.15406,-5.3541 -0.10775,-0.9975 -0.40386,-2.673 -0.62983,-3.5639 -0.76046,-2.9981 -2.20178,-6.1072 -3.76373,-8.1189 -0.70845,-0.9125 -1.97401,-2.1117 -2.22845,-2.1117 -0.0442,0 -0.22933,0.2519 -0.41131,0.5598 -1.37693,2.3296 -2.92445,4.2173 -5.04793,6.1576 -0.53445,0.4884 -0.95821,0.9227 -0.94167,0.9652 0.0165,0.042 0.28994,0.448 0.60757,0.9012 1.15864,1.6531 1.63149,2.6266 2.06032,4.2418 0.44638,1.6814 0.60958,3.3303 0.47296,4.7788 -0.1521,1.6126 -0.55864,3.5575 -1.09107,5.2196 l -0.2295,0.7164 -0.75068,-0.3118 c -3.31299,-1.3763 -7.01674,-3.9896 -13.24809,-9.3477 l -1.30166,-1.1192 -1.67832,1.4369 c -5.88274,5.0364 -9.44505,7.5581 -12.60009,8.9194 -0.45188,0.195 -0.87541,0.3545 -0.94118,0.3545 -0.13474,0 -0.37265,-0.7114 -0.78756,-2.355 -0.79099,-3.1333 -0.84849,-5.5561 -0.19225,-8.1013 0.44581,-1.729 0.95103,-2.7765 2.19366,-4.5484 l 0.58643,-0.8362 -0.44343,-0.392 c -0.87895,-0.7772 -2.93236,-2.8925 -3.50501,-3.6106 -0.68644,-0.8609 -1.40267,-1.9034 -2.0282,-2.952 l -0.4482,-0.7514 -0.351,0.2495 c -0.51664,0.3673 -1.4782,1.3504 -2.0065,2.0515 -2.07064,2.748 -3.5897,6.6399 -4.20225,10.7665 -0.19875,1.3389 -0.23832,4.1354 -0.0751,5.3062 0.7226,5.1827 3.5944,11.9021 7.05512,16.5074 1.38579,1.8441 4.72197,5.8596 7.00151,8.4272 0.2804,0.3158 0.45766,0.5445 0.39397,0.5082 -0.3883,-0.2212 -1.91662,-1.2941 -2.98498,-2.0956 -4.77251,-3.58 -7.71298,-6.8404 -12.2667,-13.601 -0.008,-0.012 -0.39272,0.2077 -0.85532,0.4873 -1.57956,0.9548 -3.99839,2.0719 -5.821269,2.6884 -2.23095,0.7546 -5.41843,1.345 -9.84456,1.8235 -1.18907,0.1286 -2.37002,0.2598 -2.62437,0.2917 l -0.46241,0.058 0.84983,0.6266 c 1.22168,0.901 2.93024,2.0126 4.09005,2.6612 1.90506,1.0654 4.62613,2.2296 11.356139,4.8589 6.70206,2.6183 7.64425,2.9947 9.02787,3.607 4.83084,2.1376 10.05234,5.3371 14.32287,8.7765 3.06233,2.4663 4.33421,3.7471 6.50629,6.5519 0.38642,0.499 0.7223,0.9055 0.74642,0.9033 0.0241,0 0.33201,-0.3808 0.68422,-0.8414 z"
       id="path823"
       inkscape:connector-curvature="0" />
    <path
       style="fill:#ee3d23;fill-opacity:1;stroke:none;stroke-width:0.05790914px;stroke-linecap:butt;stroke-linejoin:miter;stroke-opacity:1"
       d="m 152.24142,172.1718 c -0.57622,0.2171 -1.61786,0.8097 -2.88144,1.6177 0.056,0.2523 0.11026,0.5758 0.11243,0.8962 0.004,0.6028 -0.0913,1.1225 -0.79784,1.6072 -0.63562,0.4361 -1.77066,0.2594 -2.36896,-0.431 -0.65339,0.4659 -1.31605,0.9511 -1.96812,1.4447 v 3.3857 c 1.36566,-0.3253 4.20317,-1.4169 5.68471,-2.9838 1.17837,-1.2462 2.1598,-4.4695 2.21922,-5.5367 z"
       id="path861"
       inkscape:connector-curvature="0" />
  </g>
</svg>
