<?xml version="1.0" encoding="UTF-8"?>
<svg width="284.22" height="328.19" fill="none" version="1.1" viewBox="0 0 284.22 328.19" xmlns="http://www.w3.org/2000/svg" xmlns:cc="http://creativecommons.org/ns#" xmlns:dc="http://purl.org/dc/elements/1.1/" xmlns:rdf="http://www.w3.org/1999/02/22-rdf-syntax-ns#">
 <g fill="#000" stroke-width="7.8949">
  <path d="m284.22 246.14v-100.99h-69.074l32.889 18.459v61.634l-87.955 50.779-17.969 41.51-17.969-41.51-87.951-50.779v-122.31l87.941-50.772 17.979-41.536 17.979 41.536 87.945 50.772 36.185-20.893-142.11-82.046-142.11 82.046v164.1l142.11 82.046z"/>
  <path d="m228.86 214.36v-38.244l-49.15-28.375-20.727 26.275z"/>
  <path d="m228.87 114.19h-66.24l-20.518 11.846-20.518-11.846h-66.241l53.639 30.966-53.639 30.969v38.243h0.0032l119.88-69.212 53.635-30.966z"/>
 </g>
</svg>
