<?xml version="1.0" standalone="no"?>
<!DOCTYPE svg PUBLIC "-//W3C//DTD SVG 20010904//EN"
 "http://www.w3.org/TR/2001/REC-SVG-20010904/DTD/svg10.dtd">
<svg version="1.0" xmlns="http://www.w3.org/2000/svg"
 width="600.000000pt" height="758.000000pt" viewBox="0 0 600.000000 758.000000"
 preserveAspectRatio="xMidYMid meet">

<g transform="translate(0.000000,758.000000) scale(0.100000,-0.100000)"
fill="#000000" stroke="none">
<path d="M2650 7570 c-712 -55 -1430 -237 -2102 -532 -75 -33 -141 -65 -147
-71 -12 -16 -81 -255 -126 -442 -124 -510 -206 -1022 -257 -1605 -17 -195 -17
-908 0 -1100 95 -1046 358 -1739 910 -2396 112 -134 361 -384 497 -500 422
-359 989 -699 1502 -899 l72 -28 133 54 c178 72 551 259 718 359 377 227 665
447 949 725 460 450 763 924 947 1480 154 467 235 976 250 1575 20 776 -110
1765 -343 2604 l-47 169 -121 58 c-345 164 -871 336 -1325 432 -180 39 -435
79 -655 103 -166 18 -688 27 -855 14z m457 -195 c431 -91 836 -473 1142 -1075
451 -887 806 -2020 846 -2700 l7 -105 -128 -190 c-234 -349 -462 -647 -640
-834 -52 -54 -94 -102 -94 -105 0 -19 323 216 500 365 201 168 435 409 533
549 l17 24 90 -29 c76 -24 90 -32 90 -50 0 -71 -118 -477 -185 -635 -140 -334
-407 -729 -722 -1068 l-68 -73 -105 36 c-349 122 -531 295 -531 506 -1 156 90
339 379 762 219 320 303 463 367 617 l33 82 -20 71 c-37 132 -165 510 -221
652 -175 442 -366 809 -559 1070 -103 140 -298 335 -402 403 -251 163 -512
185 -763 62 -260 -128 -500 -395 -749 -836 -183 -324 -377 -798 -520 -1266
l-44 -147 24 -65 c51 -135 146 -299 335 -581 290 -433 347 -532 395 -683 48
-151 30 -261 -59 -374 -88 -113 -298 -232 -532 -302 -18 -6 -38 12 -128 111
-352 388 -607 795 -745 1188 -37 106 -106 369 -115 440 l-7 51 91 29 c50 16
92 27 94 24 151 -201 369 -426 584 -602 121 -99 397 -303 446 -328 11 -6 -34
49 -100 122 -215 240 -412 500 -625 823 l-118 180 0 63 c0 211 90 698 201
1088 179 628 525 1472 769 1875 281 464 649 774 1015 855 80 18 140 18 222 0z
m-1509 -522 c-146 -235 -354 -627 -482 -906 -252 -553 -463 -1214 -616 -1937
-23 -107 -43 -196 -44 -198 -2 -2 -7 98 -11 221 -20 605 51 1350 201 2112 30
153 94 442 110 497 6 21 194 101 397 169 149 49 488 141 495 134 2 -2 -21 -43
-50 -92z m2947 47 c198 -51 456 -137 595 -199 l105 -46 27 -115 c175 -730 287
-1624 288 -2286 0 -156 -10 -467 -16 -462 -1 2 -19 84 -39 183 -137 672 -359
1383 -601 1922 -128 286 -304 622 -475 909 -44 73 -79 135 -79 139 0 3 8 4 18
1 9 -2 89 -23 177 -46z m-2115 -2602 c87 -39 342 -210 330 -221 -10 -8 -476
11 -500 21 -35 14 -52 35 -100 124 -40 75 -41 77 -21 88 31 16 129 29 181 23
25 -3 74 -18 110 -35z m1402 21 c20 -5 39 -13 42 -17 5 -9 -79 -160 -103 -186
-23 -22 -114 -32 -364 -40 -155 -4 -177 -3 -167 9 20 24 241 170 309 204 98
50 173 57 283 30z"/>
</g>
</svg>
