<?xml version="1.0" standalone="no"?>
<!DOCTYPE svg PUBLIC "-//W3C//DTD SVG 20010904//EN"
 "http://www.w3.org/TR/2001/REC-SVG-20010904/DTD/svg10.dtd">
<svg version="1.0" xmlns="http://www.w3.org/2000/svg"
 width="800.000000pt" height="800.000000pt" viewBox="0 0 800.000000 800.000000"
 preserveAspectRatio="xMidYMid meet">

<g transform="translate(0.000000,800.000000) scale(0.100000,-0.100000)"
fill="#000000" stroke="none">
<path d="M1595 7774 c-16 -2 -72 -9 -123 -15 -305 -35 -626 -144 -846 -286
-325 -210 -526 -524 -597 -932 -97 -561 63 -1300 478 -2201 317 -691 713
-1300 1232 -1900 127 -147 587 -620 603 -620 4 0 8 271 8 603 l0 602 -136 190
c-632 883 -1008 1613 -1131 2195 -24 110 -27 148 -27 320 -1 174 2 204 22 280
81 294 285 481 617 564 152 38 286 50 488 43 l177 -6 -2 572 -3 572 -55 7
c-62 9 -658 19 -705 12z"/>
<path d="M2460 4599 l0 -3141 581 -587 c320 -322 585 -587 590 -589 5 -2 9
638 9 1511 l0 1515 1373 792 c754 436 1378 797 1385 804 10 10 443 1596 437
1604 -1 1 -719 -412 -1595 -918 -877 -506 -1595 -920 -1597 -920 -2 0 -3 429
-3 953 l0 952 -583 583 c-320 320 -585 582 -590 582 -4 0 -7 -1413 -7 -3141z"/>
<path d="M2722 7663 c20 -21 262 -272 537 -558 l501 -520 0 -191 0 -191 168
-82 c249 -123 591 -320 880 -508 62 -40 118 -73 124 -73 20 0 977 563 972 572
-14 22 -392 296 -584 423 -260 172 -389 250 -625 382 -548 306 -1114 549
-1590 684 -136 39 -385 99 -408 99 -6 0 5 -17 25 -37z"/>
<path d="M6643 5410 c-5 -19 -41 -153 -79 -297 l-69 -262 -222 -123 c-123 -68
-223 -127 -223 -131 0 -4 25 -37 55 -73 217 -256 366 -529 433 -793 23 -93 26
-125 26 -266 0 -187 -17 -263 -88 -410 -106 -221 -295 -388 -524 -465 -90 -31
-108 -34 -257 -38 -136 -3 -176 -1 -265 18 -142 29 -232 60 -378 130 -254 122
-470 286 -750 568 l-194 194 -136 -83 c-75 -45 -161 -98 -189 -116 l-53 -34 0
-628 0 -628 149 -154 c418 -434 838 -743 1290 -952 229 -106 542 -192 791
-218 138 -14 398 -7 525 16 284 50 560 168 790 337 102 75 300 278 377 388 89
125 197 338 242 477 39 121 70 279 86 442 13 133 13 460 0 592 -66 655 -339
1310 -808 1938 -110 148 -303 378 -425 506 l-94 100 -10 -35z"/>
<path d="M3740 1032 l0 -288 128 -76 c315 -189 630 -351 850 -437 l54 -21 -29
33 c-15 19 -129 142 -253 273 -249 264 -396 422 -603 652 -76 83 -140 152
-143 152 -2 0 -4 -130 -4 -288z"/>
</g>
</svg>
