<?xml version="1.0" standalone="no"?>
<!DOCTYPE svg PUBLIC "-//W3C//DTD SVG 20010904//EN"
 "http://www.w3.org/TR/2001/REC-SVG-20010904/DTD/svg10.dtd">
<svg version="1.0" xmlns="http://www.w3.org/2000/svg"
 width="300.000000pt" height="300.000000pt" viewBox="0 0 300.000000 300.000000"
 preserveAspectRatio="xMidYMid meet">

<g transform="translate(0.000000,300.000000) scale(0.100000,-0.100000)"
fill="#000000" stroke="none">
<path d="M922 2984 c-398 -58 -703 -274 -837 -592 -74 -176 -85 -266 -85 -720
l0 -372 203 2 202 3 5 400 6 400 27 81 c68 203 213 333 442 396 78 22 97 22
772 28 l692 5 206 189 c113 104 205 191 205 193 0 1 -393 3 -872 2 -678 -1
-894 -4 -966 -15z"/>
<path d="M1198 1918 l-358 -341 0 -137 0 -138 218 -5 c160 -4 233 -9 276 -22
203 -57 271 -158 283 -417 l6 -128 195 0 195 0 -6 158 c-6 177 -26 271 -79
380 -83 169 -271 278 -510 298 -43 4 -77 11 -76 15 2 5 129 126 283 270 154
144 315 295 357 335 l78 74 -253 0 -252 0 -357 -342z"/>
<path d="M2590 1259 c0 -247 -3 -325 -16 -382 -46 -208 -181 -361 -381 -434
-131 -47 -214 -53 -807 -53 l-548 0 -175 -162 c-96 -90 -191 -178 -211 -195
l-37 -33 820 3 c786 3 824 4 915 24 347 76 588 244 733 513 96 176 117 306
117 718 l0 312 -205 0 -205 0 0 -311z"/>
</g>
</svg>
