<?xml version="1.0" standalone="no"?>
<!DOCTYPE svg PUBLIC "-//W3C//DTD SVG 20010904//EN"
 "http://www.w3.org/TR/2001/REC-SVG-20010904/DTD/svg10.dtd">
<svg version="1.0" xmlns="http://www.w3.org/2000/svg"
 width="250.000000pt" height="250.000000pt" viewBox="0 0 250.000000 250.000000"
 preserveAspectRatio="xMidYMid meet">

<g transform="translate(0.000000,250.000000) scale(0.100000,-0.100000)"
fill="#000000" stroke="none">
<path d="M932 2458 c-5 -7 -23 -38 -39 -68 -16 -30 -36 -66 -45 -80 -36 -58
-208 -359 -208 -364 0 -6 224 -399 343 -601 135 -230 176 -302 326 -564 83
-145 151 -265 151 -266 0 -2 -18 -34 -40 -73 -22 -38 -40 -75 -40 -82 0 -7 30
-68 66 -134 37 -67 76 -138 87 -159 12 -20 24 -37 28 -37 3 0 33 46 66 102
134 229 203 350 203 355 0 3 9 18 21 34 l20 28 -49 88 c-27 49 -61 111 -77
138 -15 28 -34 57 -41 66 -8 8 -14 20 -14 26 0 6 -11 26 -23 45 -13 19 -40 63
-59 99 -20 35 -57 100 -83 144 -45 76 -291 502 -417 722 -32 56 -58 105 -58
108 0 4 18 38 41 76 22 38 39 76 37 83 -5 22 -172 326 -179 326 -4 0 -11 -6
-17 -12z"/>
<path d="M1370 2132 c0 -5 16 -34 35 -66 19 -32 35 -60 35 -61 0 -2 28 -50 61
-107 34 -56 81 -137 104 -178 23 -41 75 -131 115 -200 40 -69 83 -143 95 -165
13 -22 66 -114 119 -204 53 -90 96 -167 96 -170 0 -10 48 -66 52 -61 3 3 31
52 63 110 33 58 72 125 87 149 15 25 28 55 28 68 0 13 -42 96 -94 186 -51 89
-153 266 -226 392 -73 127 -144 249 -157 273 l-24 42 -194 0 c-107 0 -195 -4
-195 -8z"/>
<path d="M407 1544 c-32 -52 -167 -291 -167 -297 0 -2 36 -66 80 -141 44 -75
80 -138 80 -141 0 -2 33 -59 73 -127 41 -68 99 -168 131 -223 31 -55 61 -107
66 -115 5 -8 25 -43 45 -78 l36 -62 195 0 c107 0 194 2 194 4 0 3 -50 92 -112
198 -136 236 -330 572 -467 813 -57 99 -109 186 -116 194 -11 11 -17 7 -38
-25z"/>
</g>
</svg>
