<?xml version="1.0" standalone="no"?>
<!DOCTYPE svg PUBLIC "-//W3C//DTD SVG 20010904//EN"
 "http://www.w3.org/TR/2001/REC-SVG-20010904/DTD/svg10.dtd">
<svg version="1.0" xmlns="http://www.w3.org/2000/svg"
 width="193.000000pt" height="235.000000pt" viewBox="0 0 193.000000 235.000000"
 preserveAspectRatio="xMidYMid meet">

<g transform="translate(0.000000,235.000000) scale(0.100000,-0.100000)"
fill="#FF0076" stroke="none">
<path d="M550 2127 c-67 -116 -133 -229 -146 -249 l-23 -37 120 -208 c67 -114
136 -233 153 -263 18 -30 65 -111 105 -180 39 -69 147 -255 240 -415 l168
-290 -25 -45 c-13 -25 -33 -58 -42 -75 l-18 -30 83 -155 c47 -85 88 -156 92
-157 4 -2 24 25 44 60 19 34 84 146 143 249 l108 188 -114 197 c-63 109 -226
392 -362 628 -137 237 -261 452 -278 479 l-29 50 26 45 c65 114 67 88 -25 259
-45 84 -85 154 -90 157 -4 2 -62 -91 -130 -208z"/>
<path d="M1080 2013 c0 -6 66 -123 120 -213 15 -25 141 -243 280 -485 139
-242 256 -444 260 -448 7 -8 27 24 140 217 46 80 50 92 40 115 -6 14 -64 116
-127 226 -180 311 -293 506 -320 553 l-24 42 -184 0 c-102 0 -185 -3 -185 -7z"/>
<path d="M162 1458 c-12 -24 -53 -96 -91 -162 l-69 -118 90 -157 c119 -204
312 -540 357 -618 l36 -63 188 0 c104 0 186 3 184 7 -6 11 -107 186 -192 333
-39 69 -150 260 -245 425 -96 165 -185 321 -200 347 -14 26 -27 48 -31 48 -3
0 -15 -19 -27 -42z"/>
</g>
</svg>
